HIERARCHY
ROOT Hips
{
  OFFSET -35.4901 99.2528 17.4586
  CHANNELS 6 Xposition Yposition Zposition Zrotation Xrotation Yrotation
  JOINT LeftUpLeg
  {
    OFFSET 8.64259 1.95398 -2.38835
    CHANNELS 3 Zrotation Xrotation Yrotation
    JOINT LeftLeg
    {
      OFFSET 43.7702 0 0
      CHANNELS 3 Zrotation Xrotation Yrotation
      JOINT LeftFoot
      {
        OFFSET 40.6238 0 0
        CHANNELS 3 Zrotation Xrotation Yrotation
        JOINT LeftToeBase
        {
          OFFSET 12.7242 0 0
          CHANNELS 3 Zrotation Xrotation Yrotation
          End Site
          {
            OFFSET 0 0 0
          }
        }
      }
    }
  }
  JOINT RightUpLeg
  {
    OFFSET -8.2249 1.95398 -2.59336
    CHANNELS 3 Zrotation Xrotation Yrotation
    JOINT RightLeg
    {
      OFFSET 43.5653 0 0
      CHANNELS 3 Zrotation Xrotation Yrotation
      JOINT RightFoot
      {
        OFFSET 40.6238 0 0
        CHANNELS 3 Zrotation Xrotation Yrotation
        JOINT RightToeBase
        {
          OFFSET 12.7242 0 0
          CHANNELS 3 Zrotation Xrotation Yrotation
          End Site
          {
            OFFSET 0 0 0
          }
        }
      }
    }
  }
  JOINT Spine
  {
    OFFSET 0.165834 0.87714 6.61349
    CHANNELS 3 Zrotation Xrotation Yrotation
    JOINT Spine1
    {
      OFFSET 7.38963 1.71661e-005 0
      CHANNELS 3 Zrotation Xrotation Yrotation
      JOINT Spine2
      {
        OFFSET 11.9445 1.14441e-005 0
        CHANNELS 3 Zrotation Xrotation Yrotation
        JOINT Spine3
        {
          OFFSET 14.7254 4.19617e-005 0
          CHANNELS 3 Zrotation Xrotation Yrotation
          JOINT Spine4
          {
            OFFSET 10.9679 0 0
            CHANNELS 3 Zrotation Xrotation Yrotation
            JOINT RightShoulder
            {
              OFFSET 2.46616 -1.6653 3.69651
              CHANNELS 3 Zrotation Xrotation Yrotation
              JOINT RightArm
              {
                OFFSET 13.0012 0 0
                CHANNELS 3 Zrotation Xrotation Yrotation
                JOINT RightForeArm
                {
                  OFFSET 28.7848 1.52588e-005 0
                  CHANNELS 3 Zrotation Xrotation Yrotation
                  JOINT RightHand
                  {
                    OFFSET 26.5688 1.52588e-005 0
                    CHANNELS 3 Zrotation Xrotation Yrotation
                    End Site
                    {
                      OFFSET 0 0 0
                    }
                  }
                }
              }
            }
            JOINT LeftShoulder
            {
              OFFSET 2.38034 -1.29275 -3.7523
              CHANNELS 3 Zrotation Xrotation Yrotation
              JOINT LeftArm
              {
                OFFSET 16.3182 6.10351e-005 0
                CHANNELS 3 Zrotation Xrotation Yrotation
                JOINT LeftForeArm
                {
                  OFFSET 27.0901 0 0
                  CHANNELS 3 Zrotation Xrotation Yrotation
                  JOINT LeftHand
                  {
                    OFFSET 24.5451 1.52588e-005 0
                    CHANNELS 3 Zrotation Xrotation Yrotation
                    End Site
                    {
                      OFFSET 0 0 0
                    }
                  }
                }
              }
            }
            JOINT Neck
            {
              OFFSET 5.0226 -0.0266342 0
              CHANNELS 3 Zrotation Xrotation Yrotation
              JOINT Head
              {
                OFFSET 6.69364 2.86102e-005 0
                CHANNELS 3 Zrotation Xrotation Yrotation
                End Site
                {
                  OFFSET 0 0 0
                }
              }
            }
          }
        }
      }
    }
  }
}
MOTION
Frames:	14
Frame Time:	0.0416667
282.867 78.7811 283.529 -79.7186 40.1228 -103.355 -165.412 55.1487 77.6234 -76.6831 5.59337 -7.36382 86.7986 10.5141 -1.19477 20.5878 1.47695 -1.4528 174.557 13.3228 88.4802 -106.815 -5.17949 -0.337282 72.4898 -1.65318 3.76239 88.2931 -3.41685 -2.6978 1.05763 8.18153 -88.7716 10.481 2.67033 2.2043 -1.18891 2.76474 2.08461 -23.7215 1.88469 2.90465 -3.7089 1.88468 2.90465 91.6686 -24.3391 -105.51 39.6474 -16.3926 0.508011 -76.9361 60.3937 -52.4507 -10.9948 1.24516 -31.0425 -87.0096 -50.3981 83.2773 -8.04422 19.7415 -14.7889 171.217 -6.58828 -60.7202 -127.613 -35.6385 14.4922 22.8603 -8.93696 -14.4085 -5.58251 -3.86141 3.52265 
270.362 85.9327 269.594 -83.6164 38.1777 -103.627 -169.974 29.9473 80.9264 -62.7799 -3.06625 -6.00197 91.9215 10.7245 -9.8497 32.0654 3.74874 -6.95815 176.638 28.8386 83.1525 -111.833 -1.63335 -0.646923 78.9686 -10.394 -5.50719 47.0398 -0.975047 -4.24398 -0.10735 8.19415 -88.4145 10.4707 0.513185 3.09338 -1.20428 0.64874 3.06783 -23.7069 -0.439639 3.10472 -3.69424 -0.439626 3.10471 93.6515 -26.4638 -100.475 54.5199 -18.6217 23.3691 -56.1553 67.5645 -91.5707 -21.3678 6.08587 -35.1359 -86.2527 -49.9085 84.3337 -2.38509 25.9124 -47.857 -147.555 9.15016 -80.9475 -127.697 3.70543 -8.22921 18.2272 -5.79543 -15.3544 -4.30671 -1.10921 3.23601 
256.867 87.1117 255.852 -85.2707 37.8899 -96.9142 -171.968 11.3879 95.2413 -53.3844 3.82872 -3.16631 96.3632 13.6604 -6.52649 38.5697 1.39048 -4.06798 -178.411 44.5492 84.858 -106.388 -7.24603 -0.955773 83.581 -13.5144 -8.11716 14.7432 -2.83863 7.84933 -1.63053 8.18689 -89.0729 10.519 -2.82143 2.11347 -1.15054 -2.72568 2.23561 -23.7067 -3.32607 1.16725 -3.69405 -3.32606 1.16724 94.6971 -20.6841 -100.013 62.2646 -15.6531 41.0309 1.40024 34.9212 -102.498 -16.635 0.402815 -85.6019 -84.5932 -36.8207 84.9638 -3.22806 19.5832 -62.5764 -109.383 9.22115 -83.655 -27.5839 5.32164 -23.3445 18.0426 1.30826 -12.9609 -6.29724 4.96922 4.47881 
242.61 90.7681 240.543 -87.0111 42.5801 -88.7404 -169.663 -12.8828 93.755 -29.5787 8.92125 -0.848713 70.8265 5.11162 2.36692 59.3045 0.122669 -5.47552 -178.135 50.2101 92.1807 -80.8249 -1.22144 -1.54484 79.622 -9.92643 -3.05995 18.8262 -2.5454 6.59808 -2.31349 7.82731 -90.2755 11.2357 -4.73219 -0.0784046 -0.426648 -4.73101 0.130397 -23.0262 -4.48952 -1.49988 -3.01353 -4.4895 -1.49989 95.6139 -16.3994 -99.1697 60.7237 -17.1112 55.3132 16.1296 19.3217 -81.2896 -3.93262 12.6678 -127.155 -84.2538 -30.8439 84.5441 -12.6563 12.0472 -55.7662 -117.547 11.2126 -77.2249 -32.5817 5.7272 -25.6723 16.0321 8.82631 -6.25003 -13.1407 9.73977 6.20048 
227.836 94.3347 224.755 -85.7744 48.1327 -83.9585 -170.607 -22.1305 99.3835 -22.8467 8.4493 3.70225 56.2503 -1.89646 1.32139 18.5548 1.37765 -1.08863 -177.928 45.1094 98.2217 -42.4018 -7.25848 -1.86605 71.574 -6.32905 -0.125879 17.6843 -0.0278017 1.36238 -2.63404 7.95001 -91.515 10.913 -5.94479 -2.45307 -0.746185 -6.04695 -2.1883 -23.3437 -4.93282 -4.12867 -3.331 -4.93281 -4.12867 93.3239 -12.2929 -107.102 58.9345 -13.3243 56.4507 -20.8397 6.2765 -71.1821 -32.4624 30.1819 -94.2344 -83.3225 -29.3626 86.0996 -8.15091 6.52037 -46.7719 -123.22 14.23 -72.1954 -29.0147 5.17226 -26.3374 17.6085 15.6489 2.07465 -15.3419 13.8622 6.89282 
214.666 93.4507 210.546 -89.0192 51.7221 -84.143 -169.988 -22.3224 94.4142 -41.8668 18.9248 1.10731 61.2359 0.953254 5.74672 27.6253 3.74569 -6.07439 -177.86 37.4568 96.8017 -24.0286 -20.6374 -2.13485 73.0473 -7.08836 -1.1465 21.637 0.412281 -0.00836255 -2.23503 7.87322 -91.3663 11.0839 -5.08252 -2.22158 -0.578609 -5.17533 -1.9953 -23.1571 -4.17998 -3.64768 -3.14446 -4.18001 -3.6477 92.6279 -19.0139 -105.684 49.0861 -12.0643 48.5615 -28.6353 -2.04502 -69.5856 -38.8746 20.6113 -65.4188 -84.9991 -34.8539 83.8847 -2.7159 18.3694 -39.8661 -127.133 11.6384 -75.2767 -25.6255 3.95886 -23.8934 14.9673 16.2887 3.48627 -12.9518 14.3763 6.46401 
202.271 91.3667 196.11 -97.9061 51.7145 -78.9712 -164.169 -13.3056 97.5653 -72.3222 -1.69597 -0.0430771 61.875 1.51585 4.50175 31.7684 4.21177 -7.79017 179.059 29.8321 96.5706 -30.8937 -14.0066 -1.22451 68.4774 -4.63988 -0.952024 20.0296 -1.18751 3.5956 -1.78726 8.16813 -91.0751 10.5047 -4.05367 -1.77722 -1.16085 -4.12793 -1.59686 -23.724 -3.33218 -2.91403 -3.71139 -3.33218 -2.91404 91.4039 -27.6235 -104.722 38.9768 -6.43456 31.526 -31.8882 -11.4773 -69.3212 -41.1625 9.67994 -34.046 -84.6534 -44.5039 86.0009 -2.37349 29.9896 -30.263 -138.371 4.14298 -87.5324 -26.0231 4.00753 -23.6998 12.4638 14.6748 5.30282 -10.6385 12.6999 5.00511 
192.377 88.9273 182.539 -102.094 53.2758 -70.2705 -159.108 7.3969 105.66 -97.8978 -10.5877 4.18681 67.8744 4.40125 7.14266 28.5693 4.79482 -8.03566 177.861 28.9795 103.196 -51.061 -13.2959 0.450047 71.7102 -6.72708 -5.03334 17.1434 -1.37846 4.18061 -0.378469 8.31542 -91.7149 10.2097 -1.53683 -3.27819 -1.46437 -1.67956 -3.20747 -23.9658 -0.481299 -3.58804 -3.95317 -0.481291 -3.58803 90.2475 -32.2026 -105.488 34.7302 0.167941 9.05668 -34.1458 -12.5351 -76.3781 -43.6924 1.84125 -13.0381 -84.3669 -51.4369 87.373 -6.69705 36.482 -15.7315 -136.984 -5.61254 -93.5437 -21.6227 2.28849 -18.2889 12.8995 11.0375 7.54297 -9.9945 8.68071 3.20161 
181.572 87.1971 170.401 -105.079 50.7036 -67.3714 -166.999 29.1992 100.918 -106.143 1.73848 6.85945 71.75 6.5194 9.21386 27.9566 7.32681 -12.026 176.683 16.6513 102.402 -58.6117 -13.1324 0.847892 89.1163 -15.558 -5.95601 18.9819 -1.42286 4.19913 0.485524 8.50316 -91.7575 9.85701 0.1709 -3.50074 -1.81864 0.0167723 -3.50488 -24.3195 1.21452 -3.28799 -4.30681 1.21455 -3.28799 88.6926 -32.9511 -108.154 30.8692 7.44858 -15.2701 -30.7398 -12.4965 -79.8747 -47.6147 2.30199 -12.7456 -83.1357 -49.3995 88.9974 -20.8327 38.6299 11.8347 -138.003 1.77972 -89.5311 -21.6127 2.56543 -19.945 15.1305 6.54932 5.43611 -9.67274 4.71163 2.94291 
168.874 89.3788 157.59 -100.523 49.2956 -76.4794 -171.01 41.4053 90.6255 -86.0722 -5.03656 3.2914 75.9131 8.31757 6.66898 29.1538 6.73962 -11.4469 172.88 1.72113 91.2558 -48.1804 -17.0516 0.00732119 93.5737 -16.9916 -4.76146 23.0725 -1.83007 5.34615 1.61473 7.90428 -90.9703 11.0937 2.76399 -2.19282 -0.576534 2.66483 -2.31233 -23.1282 3.29516 -1.26037 -3.11557 3.29516 -1.26037 90.2587 -26.3627 -107.675 37.7629 20.3645 -27.1826 -36.256 -13.7926 -88.4018 -49.3161 1.32598 -10.7809 -82.6304 -45.7954 89.4239 -29.6438 44.4435 34.4771 -134.601 10.8665 -86.2563 -23.1296 2.64614 -19.2381 13.3359 -0.660754 3.51349 -9.5168 -1.54034 0.0340854 
154.608 94.9101 142.898 -101.796 49.171 -79.1155 -175.425 33.303 88.4891 -43.8308 -9.85163 -1.71972 68.6109 5.74884 2.3127 30.8031 6.03012 -10.3748 170.026 -17.106 87.9648 -32.274 -21.9506 -2.63474 69.128 -4.65929 -5.95595 30.5069 -3.02005 8.42279 2.99935 7.77422 -90.0929 11.3655 5.92529 -0.779693 -0.292302 5.88519 -1.0406 -22.9347 5.88481 1.04349 -2.92203 5.88482 1.04348 92.8718 -17.4831 -105.772 43.3078 29.1462 -23.4742 -34.5401 -12.213 -99.0556 -47.3925 1.77672 -12.1297 -82.9502 -38.1187 88.0463 -36.1523 41.7688 49.0516 -132.032 16.9171 -82.9611 -22.0542 2.05685 -16.6137 15.0812 -8.265 -2.11152 -14.5479 -7.19482 -2.54935 
140.749 97.4917 128.547 -99.0947 49.9002 -82.1736 -179.989 24.8388 88.8297 -10.8453 -2.45263 -1.35546 65.1024 4.44255 -6.75822 20.0105 -5.65653 8.13355 168.236 -22.8113 83.842 -31.3538 -18.1482 -3.9184 62.3884 -0.399083 -2.29383 21.54 -1.32556 3.89807 3.49759 7.43128 -89.5702 12.0252 7.1563 0.074649 0.374054 7.15263 -0.242049 -22.3088 6.80138 2.23212 -2.29616 6.80136 2.23211 94.005 -10.9796 -105.901 37.2131 20.6194 -15.129 -33.9403 -6.28035 -102.433 -44.9952 2.81448 -14.9897 -82.6751 -32.406 87.819 -41.2332 30.5208 59.4926 -127.949 22.3909 -78.3296 -21.598 1.36932 -13.0017 15.6084 -11.0955 -5.45047 -16.0984 -8.87229 -3.92417 
127.551 96.6238 115.153 -102.262 50.003 -75.369 -178.082 19.6334 92.007 -8.21342 6.29133 -0.3935 61.9311 3.4827 1.43829 25.7833 1.99551 -2.91252 167.444 -23.9081 84.4787 -43.9963 -7.59792 -1.15697 62.2148 -0.342606 -1.94743 20.2211 -1.78782 4.95827 3.31188 7.33414 -90.1625 12.2545 6.50548 -1.05364 0.599226 6.45275 -1.34009 -22.0661 6.52006 0.958816 -2.05344 6.52007 0.958818 93.4315 -15.0803 -105.381 32.212 -1.73518 -4.30403 -35.5296 0.852152 -100.933 -42.0181 3.27912 -16.5597 -81.9785 -35.8886 89.5216 -40.9382 23.3182 59.6827 -129.388 21.8005 -75.2071 -19.3647 1.03615 -11.9014 15.2324 -9.66335 -5.92479 -16.4354 -7.53089 -2.44756 
114.712 94.2787 102.746 -109.751 50.8801 -70.5852 -174.052 18.914 91.2975 -30.5823 8.71221 -3.24492 57.5437 -0.746981 3.64919 22.3338 1.34485 -1.70757 165.859 -17.7377 78.9613 -63.0123 -2.75615 -2.30338 65.3898 -3.07935 -3.75462 14.4094 -0.967636 3.42655 2.70414 7.74646 -90.1877 11.4147 5.29329 -0.906251 -0.245942 5.24827 -1.13897 -22.867 5.32014 0.731044 -2.85441 5.32014 0.731053 91.7776 -20.5963 -106.918 38.5442 -11.8074 9.53658 -29.9046 0.632022 -90.6634 -28.3839 3.12949 -20.962 -81.5317 -41.7947 90.874 -36.7837 21.0286 44.9231 -128.472 13.6843 -79.3039 -24.4253 2.24349 -16.3347 13.4247 -5.89734 -7.87939 -13.9789 -3.69087 -0.477891 
